<svg xmlns="http://www.w3.org/2000/svg" version="1.1" xmlns:xlink="http://www.w3.org/1999/xlink" xmlns:svgjs="http://svgjs.dev/svgjs" width="100%" height="100%" viewBox="0 0 1000 600"><rect width="1000" height="600" x="0" y="0" fill="#00000000"/><g><rect width="333.3333333333333" height="333.3333333333333" rx="13.333333333333334" ry="13.333333333333334" y="278.48598193061696" fill="#c6e0ffff" transform="matrix(0.48777862986436143,0,0,0.48777862986436143,-2.9652451328696516,82.86403476717607)" x="268.1318054199218"/><path d="M286.66862697072173 520.1526482353627L286.66862697072173 520.1526482353627Q273.31436104518946 520.1526482353627 267.8285837562779 512.4781012200672Q262.3428064673663 504.80355420477173 262.3428064673663 489.232812606952L262.3428064673663 489.232812606952Q262.3428064673663 479.2586720816582 265.63981402989396 459.22727319335985Q268.93682159242167 439.1681683591579 274.9213059075979 406.0595630043632L274.9213059075979 406.0595630043632L264.3376345724251 384.69827871269234Q273.7022442878398 378.7137943975161 284.2859156230126 374.44707872836267Q294.8695869581855 370.15265711330557 305.42555234745475 370.15265711330557L305.42555234745475 370.15265711330557Q315.01180963009824 370.15265711330557 322.2984734027434 373.0340754872794Q329.55743122948496 375.9431998071567 334.9600906806858 384.00563006510254Q340.335044185983 392.09576626895193 344.019934991161 407.5556840831573Q347.73253174224254 423.01560189736267 350.11524308995166 448.1448948319223L350.11524308995166 448.1448948319223L352.4979544376607 448.1448948319223Q357.29108307898247 434.37503971783616 364.4669230680133 420.60518460375Q371.67046900294764 406.86303543556744 381.64460952824146 395.4758916691904Q391.6187500535352 384.1164538487169 404.8621921954531 377.217673318722Q418.13334028327455 370.34659873463073 435.089379176274 370.34659873463073L435.089379176274 370.34659873463073Q444.48169483759233 370.34659873463073 447.47393699518045 375.83237602354234Q450.4661791527686 381.31815331245394 450.4661791527686 388.90958249003864L450.4661791527686 388.90958249003864Q450.4661791527686 392.09576626895193 449.3579413166248 399.1607824743684Q448.24970348048106 406.2535046256884 446.4765229426511 415.53499650339234Q444.6756364589175 424.8164883810963 442.7639261915695 434.87374674410086Q440.8799218701251 444.95871105300904 439.0790353863915 454.4341445520381Q437.2781489026579 463.90957805106723 436.19761701241777 471.1962418237124Q435.089379176274 478.45519965045395 435.089379176274 482.25091423924636L435.089379176274 482.25091423924636Q435.089379176274 492.4189963858653 436.58550025506804 499.4008947535709Q438.08162133386213 506.3827931212766 441.07386349145025 511.1759217625983L441.07386349145025 511.1759217625983Q429.10489486109776 520.1526482353627 416.33245379954093 520.1526482353627L416.33245379954093 520.1526482353627Q402.9781878740087 520.1526482353627 397.49241058509716 512.4781012200672Q392.00663329618556 504.80355420477173 392.00663329618556 489.232812606952L392.00663329618556 489.232812606952Q392.00663329618556 480.67167532274146 394.500168427509 464.7130504822714Q396.99370355883246 448.7544256418014 401.37124301160026 423.59742676133817L401.37124301160026 423.59742676133817L398.18505923268697 423.59742676133817Q389.6239219484765 434.9845705277152 383.2238484447463 449.0314851008373Q376.8514808869197 463.106105619863 373.16659008174173 476.9590785716599Q369.4539933306601 490.83975746936045 368.2626376568056 501.61737042585844L368.2626376568056 501.61737042585844Q363.2755673941587 506.18885149995145 357.40190686259683 508.4884450099497Q351.50054038513133 510.788038519948 345.7377036371838 510.788038519948L345.7377036371838 510.788038519948Q340.94457499586207 510.788038519948 336.7609771644194 507.10314771477005Q332.54967338707314 503.39055096368844 328.9756063655095 494.02594124827374Q325.37383339804234 484.66133153285904 322.6863566453937 467.5944688562452Q319.9988798927451 450.5276061796314 318.3919350303367 423.59742676133817L318.3919350303367 423.59742676133817L315.20575125142335 423.59742676133817Q312.60139233648556 434.9845705277152 310.41262261010166 446.8427153744534Q308.2238528837177 458.72856616709515 306.83855558853804 468.287117503835Q305.42555234745475 477.8733747864785 305.42555234745475 482.25091423924636L305.42555234745475 482.25091423924636Q305.42555234745475 492.4189963858653 306.9216734262488 499.4008947535709Q308.4177945050429 506.3827931212766 311.410036662631 511.1759217625983L311.410036662631 511.1759217625983Q299.44106803227845 520.1526482353627 286.66862697072173 520.1526482353627ZM493.3549834115319 520.1526482353627L493.3549834115319 520.1526482353627Q479.973011540096 520.1526482353627 474.4872342511845 512.4781012200672Q469.00145696227287 504.80355420477173 469.00145696227287 489.232812606952L469.00145696227287 489.232812606952Q469.00145696227287 479.2586720816582 472.2984645248005 459.22727319335985Q475.59547208732823 439.1681683591579 481.5799564025045 406.0595630043632L481.5799564025045 406.0595630043632L470.9962850673316 384.69827871269234Q480.3886007286499 378.7137943975161 490.94456611791924 374.53019656607347Q501.5282374530921 370.34659873463073 512.0842028423613 370.34659873463073L512.0842028423613 370.34659873463073Q517.4868622935621 370.34659873463073 523.9700536350031 371.9535435970392Q530.4532449764442 373.5327825135441 534.2489595652364 376.33108304980703L534.2489595652364 376.33108304980703Q549.2101703531771 370.34659873463073 561.1791389835298 370.34659873463073L561.1791389835298 370.34659873463073Q574.1455216664117 370.34659873463073 583.0114243555615 376.33108304980703Q591.8773270447116 382.3155673649833 596.4765140647082 391.90182464762677Q601.0757010847049 401.46037598436664 601.0757010847049 412.43193056218985L601.0757010847049 412.43193056218985Q601.0757010847049 424.8164883810963 594.6756275809746 436.979398632774Q588.3032600231481 449.14230888445167 575.1429357189411 457.1216213046867L575.1429357189411 457.1216213046867Q579.5204751717088 469.4784731776896 584.8123108392952 480.17296829647677Q590.1041465068818 490.83975746936045 595.8669832548292 498.3203628633308Q601.6575259486804 505.8009682573011 607.2541270212064 508.98715203621447L607.2541270212064 508.98715203621447Q604.4558264849434 511.97939419380253 599.4687562222964 514.472929325126Q594.4816859596494 516.9664644564494 588.8850848871236 518.4625855352435Q583.3161897605012 519.9587066140375 578.7170027405045 519.9587066140375L578.7170027405045 519.9587066140375Q570.1558654562941 519.9587066140375 563.5618503312387 517.271229861389Q556.9678352061835 514.5837531087404 551.8976471058259 507.38020717380596Q546.7997530595644 500.20436718477515 542.2282719854716 487.2379845018932L542.2282719854716 487.2379845018932L535.2463736177658 467.0957618299805Q524.8566439039182 467.0957618299805 514.3006785146488 463.90957805106723L514.3006785146488 463.90957805106723Q512.0842028423613 476.682019112624 512.0842028423613 482.25091423924636L512.0842028423613 482.25091423924636Q512.0842028423613 492.4189963858653 513.5803239211555 499.4008947535709Q515.0764449999494 506.3827931212766 518.0686871575376 511.1759217625983L518.0686871575376 511.1759217625983Q506.0997185271851 520.1526482353627 493.3549834115319 520.1526482353627ZM523.0557574201846 442.160410516746L523.0557574201846 442.160410516746Q534.4429011865616 442.160410516746 541.9235065805319 438.05993052301415Q549.4041119745023 433.9871564751858 553.0890027796804 427.69790675507005Q556.7738935848583 421.4086570349542 556.7738935848583 415.2302310984528L556.7738935848583 415.2302310984528Q556.7738935848583 407.6388019208681 551.7868233222114 401.76514138930617Q546.7997530595644 395.8914808577443 536.8256125342707 395.8914808577443L536.8256125342707 395.8914808577443Q531.6446006502986 395.8914808577443 526.4635887663267 397.276778152924L526.4635887663267 397.276778152924Q525.6601163351224 402.6517316582212 524.4687606612679 410.13233705219153Q523.2774049874133 417.61294244616187 521.86440174633 425.89702027133643Q520.4791044511503 434.181098096511 518.4842763460915 441.96646889542086L518.4842763460915 441.96646889542086Q519.4816903986209 442.160410516746 520.562222288861 442.160410516746Q521.6704601250049 442.160410516746 523.0557574201846 442.160410516746Z " fill="#253031ff" transform="matrix(0.48777862986436143,0,0,0.48777862986436143,-2.9652451328696516,82.86403476717607)"/><path d="M701.53289816303 491.46776335889524L701.53289816303 491.46776335889524Q692.3461134369026 491.46776335889524 688.5722890058377 486.18822109927424Q684.7984645747729 480.9086788396532 684.7984645747729 470.1971165656207L684.7984645747729 470.1971165656207Q684.7984645747729 463.3356176000483 687.0665711772815 449.55544051085695Q689.3346777797902 435.7562037023169 693.4515771591336 412.97983908048616L693.4515771591336 412.97983908048616L686.1707643678873 398.28479546255187Q692.6129495077859 394.1678960832084 699.8937622990321 391.2326993034913Q707.1745750902785 388.2784428044254 714.436328162176 388.2784428044254L714.436328162176 388.2784428044254Q721.030991056865 388.2784428044254 726.0436972456026 390.26065361670186Q731.0373437149915 392.2619241483272 734.7539889880098 397.80830247883154Q738.4515745416795 403.3737405286847 740.9865172150716 414.009063925322Q743.5405196078124 424.6443873219593 745.1796554718102 441.93155277133206L745.1796554718102 441.93155277133206L746.8187913358081 441.93155277133206Q750.1161227831527 432.45887225497233 755.052590094495 422.9861917386126Q760.0081171251862 413.5325709416017 766.8696160907587 405.69902628923984Q773.7311150563311 397.8845413562268 782.8416609050633 393.1386712383725Q791.9712664731445 388.4118608398671 803.6358147146176 388.4118608398671L803.6358147146176 388.4118608398671Q810.097059573865 388.4118608398671 812.1555092635367 392.1856852709319Q814.2139589532085 395.95950970199675 814.2139589532085 401.1818728035713L814.2139589532085 401.1818728035713Q814.2139589532085 403.3737405286847 813.4515701792559 408.2339689626319Q812.6891814053034 413.1132571159278 811.4693593669795 419.49826309777995Q810.2304776093067 425.8832690796321 808.9153569742386 432.80194720325096Q807.6192960585194 439.73968504621865 806.3804143008466 446.25810906351245Q805.1415325431738 452.77653308080625 804.3982034885701 457.7892392695439Q803.6358147146176 462.78288573893275 803.6358147146176 465.39406728972L803.6358147146176 465.39406728972Q803.6358147146176 472.38898429073413 804.6650395594535 477.19203356663485Q805.6942644042894 481.9950828425355 807.752714093961 485.29241428988007L807.752714093961 485.29241428988007Q799.5189153352742 491.46776335889524 790.7323847154717 491.46776335889524L790.7323847154717 491.46776335889524Q781.5455999893442 491.46776335889524 777.7717755582793 486.18822109927424Q773.9979511272145 480.9086788396532 773.9979511272145 470.1971165656207L773.9979511272145 470.1971165656207Q773.9979511272145 464.3076632868377 775.7133258686075 453.3292649419218Q777.4287006100006 442.3508665970059 780.4401362671131 425.04464142828436L780.4401362671131 425.04464142828436L778.2482685419997 425.04464142828436Q772.3588152632166 432.8781860806462 767.956020093641 442.54146379049405Q763.5722846434142 452.2238012196907 761.0373419700221 461.75366089409687Q758.4833395772813 471.3025802878518 757.6637716452823 478.7168111145398L757.6637716452823 478.7168111145398Q754.233022162496 481.86166480709386 750.1923616605478 483.44362151304523Q746.1326414392508 485.0255782189967 742.1682198146979 485.0255782189967L742.1682198146979 485.0255782189967Q738.8708883673534 485.0255782189967 735.9928707456827 482.4906355456047Q733.0957934046633 479.9366331528638 730.6370896086664 473.4944480129652Q728.1593260933208 467.0522628730667 726.310533316486 455.3114757541983Q724.4617405396513 443.5706886353299 723.3562768174202 425.04464142828436L723.3562768174202 425.04464142828436L721.1644090923068 425.04464142828436Q719.3727954735184 432.8781860806462 717.8670776449623 441.03574596193783Q716.361359816406 449.2123655625783 715.4083738489654 455.7879687379186Q714.436328162176 462.3826316326077 714.436328162176 465.39406728972L714.436328162176 465.39406728972Q714.436328162176 472.38898429073413 715.4655530070119 477.19203356663485Q716.4947778518477 481.9950828425355 718.5532275415195 485.29241428988007L718.5532275415195 485.29241428988007Q710.3194287828325 491.46776335889524 701.53289816303 491.46776335889524ZM843.8518225406116 491.33434532345353L843.8518225406116 491.33434532345353Q835.484605746483 491.33434532345353 831.9013785089062 486.111982221879Q828.3372109906784 480.9086788396532 828.3372109906784 470.1971165656207L828.3372109906784 470.1971165656207Q828.3372109906784 467.18568090850835 829.0995997646309 461.27716791037653Q829.8429288192345 455.38771463159355 831.0818105769073 447.8400657694639Q832.3206923345801 440.2924169073342 833.8264101631363 432.1157973066937Q835.3321279916925 423.95823742540205 836.704427784807 416.27717052783066Q838.0767275779215 408.5770439109105 839.1821913001526 402.5541725966858L839.1821913001526 402.5541725966858L831.5011244025812 391.57577425176993Q838.7628774744787 387.306397117636 845.3575403691677 384.4283794959653Q851.9522032638567 381.55036187429465 858.5278064391971 381.55036187429465L858.5278064391971 381.55036187429465Q864.3029014018872 381.55036187429465 866.551948285047 383.81846847680333Q868.8200548875557 386.086575079312 868.8200548875557 391.28987846153774L868.8200548875557 391.28987846153774Q868.8200548875557 396.09292773743846 867.5811731298829 403.2975016512895Q866.361351091559 410.50207556514056 864.5697374727706 418.9455312366644Q862.7781238539822 427.38898690818826 860.9293310771475 436.3089355634324Q859.0805383003126 445.22888421867657 857.8416565426398 453.4626829773635Q856.602774784967 461.69648173605043 856.602774784967 468.42456266618115L856.602774784967 468.42456266618115Q856.602774784967 473.7612840838486 857.6319996298029 477.9544223405873Q858.6612244746387 482.14756059732605 860.872151919101 484.6062643933228L860.872151919101 484.6062643933228Q851.2660533672995 491.33434532345353 843.8518225406116 491.33434532345353ZM902.7272956090928 491.33434532345353L902.7272956090928 491.33434532345353Q895.0271689921726 491.33434532345353 889.1948948714361 487.3508639795518Q883.3626207506995 483.36738263565 880.2177670581455 476.10562956375253Q877.0538536462426 468.8248167725062 877.0538536462426 459.0853001852631L877.0538536462426 459.0853001852631Q877.0538536462426 447.6875880146734 881.1135738675396 437.9480714274303Q885.1542343694878 428.20855484018716 892.3588082833389 420.9277420489409Q899.56338219719 413.6659889770434 909.3028987844331 409.6062687557464Q919.0424153716762 405.56560825379813 930.4401275422658 405.56560825379813L930.4401275422658 405.56560825379813Q933.7374589896104 405.56560825379813 936.1389836275607 405.7752651666351Q938.5405082655111 405.984922079472 941.2851078517401 406.6710719760293L941.2851078517401 406.6710719760293Q942.104675783739 410.50207556514056 942.2380938191807 413.3800931868112L942.2380938191807 413.3800931868112Q945.4020072310836 411.32164349713946 949.2330108201949 410.15900061686193Q953.083074128655 408.9963577365844 956.3804055759995 408.9963577365844L956.3804055759995 408.9963577365844Q966.3867582341259 408.9963577365844 966.3867582341259 419.8413380460586L966.3867582341259 419.8413380460586Q966.3867582341259 423.40550556428644 965.0906973184067 429.5046157559064Q963.7946364026875 435.6227856668752 962.0792616612944 442.96077761616795Q960.3638869199012 450.29876956546065 959.0487662848332 457.92265730498553Q957.752705369114 465.5274853251617 957.752705369114 472.12214821985077L957.752705369114 472.12214821985077Q957.752705369114 481.0420968750949 962.003022783899 484.6062643933228L962.003022783899 484.6062643933228Q954.3219558863277 491.33434532345353 945.668843301967 491.33434532345353L945.668843301967 491.33434532345353Q937.7209403335122 491.33434532345353 933.9471159024473 486.39787801211116Q930.1732914713825 481.4614107007688 930.1732914713825 471.0166844976196L930.1732914713825 471.0166844976196L928.800991678268 470.3305346010624Q925.0843464052496 480.222528943096 918.1656682816308 485.76890727360035Q911.2279304386631 491.33434532345353 902.7272956090928 491.33434532345353ZM913.5532161992182 466.36611297650944L913.5532161992182 466.36611297650944Q918.9089973362345 466.36611297650944 923.9979424023674 462.51604966804933Q929.0678277491514 458.6659863595892 932.4985772319376 451.95696514880734L932.4985772319376 451.95696514880734Q933.0513090930532 446.6011840117911 933.6612201122151 441.8553138939368Q934.290190850726 437.12850349543135 935.3194156955618 431.7727223584151Q936.3486405403977 426.4169412213988 937.8543583689539 419.1551881495013L937.8543583689539 419.1551881495013Q930.8594413679398 419.1551881495013 924.6078534215293 421.8235488583351Q918.3562654751189 424.5109692865176 913.4197981637765 429.1615408076278Q908.4833308524342 433.8311720480868 905.6624923888099 439.7968642042651Q902.8607136445345 445.7816160797921 902.8607136445345 452.3572192551324L902.8607136445345 452.3572192551324Q902.8607136445345 459.0853001852631 905.6624923888099 462.7257065808863Q908.4833308524342 466.36611297650944 913.5532161992182 466.36611297650944ZM1004.963630196122 491.33434532345353L1004.963630196122 491.33434532345353Q997.9496534757591 491.33434532345353 991.9839613195809 487.56052089238875Q986.0182691634027 483.78669646132386 982.3778627677794 476.5821225474728Q978.7374563721562 469.37754863362176 978.7374563721562 459.0853001852631L978.7374563721562 459.0853001852631Q978.7374563721562 450.58466535569283 981.9776086614544 441.7218958584951Q985.1987012314037 432.8781860806462 991.7743044067439 425.4639552539582Q998.368967301433 418.04972442727023 1008.3943796789083 413.5325709416017Q1018.4007323370347 408.9963577365844 1032.1237302681798 408.9963577365844L1032.1237302681798 408.9963577365844Q1034.315597993293 408.9963577365844 1036.45028656036 409.12977577202605Q1038.5849751274268 409.26319380746776 1040.910260887982 409.54908959769995L1040.910260887982 409.54908959769995Q1041.0436789234236 408.5770439109105 1041.5201719071442 406.04210123751847Q1042.015724610213 403.5071585641264 1042.149142645655 402.5541725966858L1042.149142645655 402.5541725966858L1034.4680757480837 391.57577425176993Q1041.7298288199809 387.306397117636 1048.3244917146703 384.4283794959653Q1054.9000948900102 381.55036187429465 1061.4947577846992 381.55036187429465L1061.4947577846992 381.55036187429465Q1067.2507930280408 381.55036187429465 1069.5188996305492 383.81846847680333Q1071.787006233058 386.086575079312 1071.787006233058 391.28987846153774L1071.787006233058 391.28987846153774Q1071.787006233058 396.09292773743846 1070.548124475385 403.2975016512895Q1069.3092427177126 410.50207556514056 1067.536688818273 418.9455312366644Q1065.7450751994847 427.38898690818826 1063.8962824226496 436.3089355634324Q1062.047489645815 445.22888421867657 1060.808607888142 453.4626829773635Q1059.5697261304695 461.69648173605043 1059.5697261304695 468.42456266618115L1059.5697261304695 468.42456266618115Q1059.5697261304695 474.86674780607973 1060.5989509753053 478.7739902725862Q1061.6281758201412 482.68123273909276 1063.8200435452545 484.6062643933228L1063.8200435452545 484.6062643933228Q1056.1389766476832 491.33434532345353 1047.504923782671 491.33434532345353L1047.504923782671 491.33434532345353Q1041.5964107845393 491.33434532345353 1038.2419001791486 489.1424775983401Q1034.8683298544088 486.9506098732267 1033.3626120258523 483.78669646132386Q1031.8568941972962 480.62278304942106 1031.8568941972962 477.8781834631921L1031.8568941972962 477.8781834631921L1030.4845944041817 477.19203356663485Q1024.9953952317237 484.4728463578811 1018.2673143015929 487.9035958406674Q1011.5392333714623 491.33434532345353 1004.963630196122 491.33434532345353ZM1018.6866281272669 470.74984842673626L1018.6866281272669 470.74984842673626Q1022.2507956454948 470.74984842673626 1025.9483811991645 468.9582348079479Q1029.665026472183 467.18568090850835 1032.9432982001786 463.3356176000483L1032.9432982001786 463.3356176000483Q1033.915343886968 453.1767871871313 1035.421061715524 442.2746277196107Q1036.9267795440805 431.3724682520901 1039.1186472691938 421.0802198037314L1039.1186472691938 421.0802198037314Q1030.7514304750653 421.0802198037314 1024.2330064577714 424.0154165834485Q1017.7145824404774 426.96967308251436 1013.3880261482971 431.84896123581035Q1009.0805295754656 436.70918966975745 1006.8124229729568 442.4842846324476Q1004.5443163704482 448.24031987578894 1004.5443163704482 453.86293708368856L1004.5443163704482 453.86293708368856Q1004.5443163704482 461.9633178069338 1008.7374546271869 466.36611297650944Q1012.9115331645768 470.74984842673626 1018.6866281272669 470.74984842673626ZM1120.6370669240641 491.33434532345353L1120.6370669240641 491.33434532345353Q1107.8861146797085 491.33434532345353 1099.0995840599062 486.79813211843623Q1090.3130534401039 482.2809786327677 1085.8530791124817 474.1043590321272Q1081.3931047848596 465.9467991508356 1081.3931047848596 455.23523687680307L1081.3931047848596 455.23523687680307Q1081.3931047848596 444.1234204964455 1085.4337652868076 434.9938149283644Q1089.4934855081046 425.8832690796321 1096.7552385800022 419.28860618494303Q1104.0360513712485 412.69394329025397 1113.7183888004452 409.12977577202605Q1123.3816665102931 405.56560825379813 1134.645960645441 405.56560825379813L1134.645960645441 405.56560825379813Q1147.9496447509118 405.56560825379813 1154.258411855369 411.47412125193Q1160.567178959826 417.363574530713 1160.567178959826 426.28352318595716L1160.567178959826 426.28352318595716Q1160.567178959826 433.9645900835285 1155.5735324904372 440.7689098910545Q1150.5608263016993 447.5541699792317 1139.4490099213417 451.74730823597037Q1128.3181338216355 455.92138677336027 1109.79208661459 456.07386452815075L1109.79208661459 456.07386452815075Q1110.2114004402638 464.84133542860445 1113.8518068358867 469.8540416173421Q1117.49221323151 474.86674780607973 1122.981412403968 474.86674780607973L1122.981412403968 474.86674780607973Q1125.726011990197 474.86674780607973 1128.7374476473092 473.5706868903605Q1131.7488833044217 472.2555662552924 1133.8073329940935 468.9010556499015Q1135.8657826837652 465.5274853251617 1135.8657826837652 459.63803204637867L1135.8657826837652 459.63803204637867Q1145.2050451646833 459.63803204637867 1150.5608263016993 461.69648173605043Q1155.9166074387158 463.75493142572213 1155.9166074387158 469.1107125627384L1155.9166074387158 469.1107125627384Q1155.9166074387158 474.0471798740808 1151.6472303045816 479.1933040982601Q1147.3969128897966 484.33942832243946 1139.5061890793882 487.8273569632721Q1131.6154652689797 491.33434532345353 1120.6370669240641 491.33434532345353ZM1111.0309683722626 445.0954661832349L1111.0309683722626 445.0954661832349Q1121.0563807497379 444.2568385318871 1127.0983117833116 441.3788209102165Q1133.1211830975362 438.50080328854585 1135.8657826837652 434.8032177348762Q1138.6103822699943 431.0865724618578 1138.6103822699943 427.9417187693038L1138.6103822699943 427.9417187693038Q1138.6103822699943 425.19711918307485 1136.9712464059962 423.40550556428644Q1135.3321105419982 421.6138919454981 1132.301615165537 421.6138919454981L1132.301615165537 421.6138919454981Q1127.3651478541947 421.6138919454981 1123.1148304394096 425.04464142828436Q1118.8645130246246 428.4753909110706 1115.776838490117 433.90741092548205Q1112.6891639556093 439.32037122054476 1111.0309683722626 445.0954661832349ZM1188.985220508905 491.33434532345353L1188.985220508905 491.33434532345353Q1180.3321079245443 491.33434532345353 1176.6345223708745 486.9506098732267Q1172.917877097856 482.5478147036511 1172.917877097856 474.3140159449642L1172.917877097856 474.3140159449642Q1172.917877097856 471.4359983232935 1173.756504749204 465.47030616711527Q1174.5760726812027 459.504614010937 1175.8721335969221 452.14756234229543Q1177.1872542319902 444.80957039300273 1178.6929720605463 437.3953395663147Q1180.1986898891028 430.00016845897557 1181.5709896822168 424.2250734962854L1181.5709896822168 424.2250734962854L1174.4426546457612 413.2466751513695Q1180.0652718536608 410.1018214588155 1186.5836958709547 407.8337148563068Q1193.1021198882486 405.56560825379813 1199.8302008183791 405.56560825379813L1199.8302008183791 405.56560825379813Q1205.5862360617207 405.56560825379813 1208.3308356479492 408.38644671742236Q1211.0754352341783 411.1882254616978 1211.0754352341783 415.99127473759853L1211.0754352341783 415.99127473759853Q1211.0754352341783 419.5554422558264 1210.122449266738 423.40550556428644Q1209.1504035799485 427.25556887274655 1207.9115218222755 430.00016845897557L1207.9115218222755 430.00016845897557L1209.28382161539 430.68631835553276Q1217.384202338635 416.81084266959743 1226.9903008904366 411.1882254616978Q1236.5963994422382 405.56560825379813 1246.6218118197135 405.56560825379813L1246.6218118197135 405.56560825379813Q1254.989028613842 405.56560825379813 1259.1059279931856 409.6062687557464Q1263.222827372529 413.6659889770434 1263.222827372529 422.1666238066137L1263.222827372529 422.1666238066137Q1263.222827372529 429.58085463330167 1261.2406165602524 437.89089226938387Q1259.239346028627 446.1818701861172 1257.1808963389553 454.89216192852444Q1255.1224466492836 463.6215133902804 1255.1224466492836 472.12214821985077L1255.1224466492836 472.12214821985077Q1255.1224466492836 480.62278304942106 1258.0004642709546 484.6062643933228L1258.0004642709546 484.6062643933228Q1250.738711199057 491.33434532345353 1242.905166546695 491.33434532345353L1242.905166546695 491.33434532345353Q1234.271113681683 491.33434532345353 1230.5544684086644 486.9506098732267Q1226.856882854995 482.5478147036511 1226.856882854995 474.3140159449642L1226.856882854995 474.3140159449642Q1226.856882854995 469.79686245929565 1228.0957646126676 464.23142440944247Q1229.3346463703406 458.6659863595892 1230.9737822343386 452.90995111624795Q1232.6129180983362 447.1539158729066 1233.8517998560092 442.0649708067737Q1235.0906816136821 436.99508545998964 1235.0906816136821 433.2784401869713L1235.0906816136821 433.2784401869713Q1235.0906816136821 430.40042256530063 1234.0614567688463 428.76128670130277Q1233.0322319240104 427.10309111795607 1230.421050373223 427.10309111795607L1230.421050373223 427.10309111795607Q1226.723464819553 427.10309111795607 1221.7869975082108 430.40042256530063Q1216.8314704775198 433.69775401264513 1212.1046600790141 439.6634461688234Q1207.377849680509 445.62913832500163 1204.2901751460013 453.86293708368856Q1201.2025006114936 462.0967358423755 1201.2025006114936 472.12214821985077L1201.2025006114936 472.12214821985077Q1201.2025006114936 480.62278304942106 1204.0805182331642 484.6062643933228L1204.0805182331642 484.6062643933228Q1196.799705441918 491.33434532345353 1188.985220508905 491.33434532345353ZM1335.5354025819229 491.46776335889524L1335.5354025819229 491.46776335889524Q1326.3486178557955 491.46776335889524 1322.5747934247306 486.18822109927424Q1318.8009689936657 480.9086788396532 1318.8009689936657 470.1971165656207L1318.8009689936657 470.1971165656207Q1318.8009689936657 463.3356176000483 1321.0690755961741 449.55544051085695Q1323.337182198683 435.7562037023169 1327.4540815780265 412.97983908048616L1327.4540815780265 412.97983908048616L1320.1732687867802 398.28479546255187Q1326.6154539266786 394.1678960832084 1333.8962667179248 391.28987846153774Q1341.177079509171 388.4118608398671 1348.4388325810687 388.4118608398671L1348.4388325810687 388.4118608398671Q1352.1554778540872 388.4118608398671 1356.6154521817093 389.51732456209817Q1361.0754265093315 390.6037285649805 1363.6675483407698 392.52876021921054L1363.6675483407698 392.52876021921054Q1373.9597967891282 388.4118608398671 1382.1935955478152 388.4118608398671L1382.1935955478152 388.4118608398671Q1391.1135442030595 388.4118608398671 1397.2317141140284 392.52876021921054Q1403.330824305648 396.645659598554 1406.4947377175513 403.24032249324307Q1409.639591410105 409.8159256685833 1409.639591410105 417.363574530713L1409.639591410105 417.363574530713Q1409.639591410105 425.8832690796321 1405.2558559598783 434.2504858737607Q1400.8721205096513 442.61770266788926 1391.7996940996168 448.10690184034723L1391.7996940996168 448.10690184034723Q1394.830189476078 456.6075366699175 1398.4705958717009 463.96458833855905Q1402.0919425479756 471.3025802878518 1406.075423891877 476.44870451203116Q1410.058905235779 481.59482873621045 1413.908968544239 483.78669646132386L1413.908968544239 483.78669646132386Q1411.9839368900089 485.8451461509956 1408.5531874072226 487.56052089238875Q1405.1224379244368 489.27589563378183 1401.2723746159763 490.3051204786177Q1397.441371026865 491.33434532345353 1394.2774576149623 491.33434532345353L1394.2774576149623 491.33434532345353Q1388.3689446168305 491.33434532345353 1383.851791131162 489.48555254661875Q1379.3155779261447 487.63675976978396 1375.827649285312 482.68123273909276Q1372.3206609251306 477.7447654277504 1369.1567475132279 468.8248167725062L1369.1567475132279 468.8248167725062L1364.353698237327 454.96840080591966Q1357.225363200871 454.96840080591966 1349.9445504096248 452.77653308080625L1349.9445504096248 452.77653308080625Q1348.4388325810687 461.5630637006087 1348.4388325810687 465.39406728972L1348.4388325810687 465.39406728972Q1348.4388325810687 472.38898429073413 1349.4680574259046 477.19203356663485Q1350.4972822707405 481.9950828425355 1352.5557319604122 485.29241428988007L1352.5557319604122 485.29241428988007Q1344.3219332017252 491.46776335889524 1335.5354025819229 491.46776335889524ZM1355.9864814431985 437.8146533919886L1355.9864814431985 437.8146533919886Q1363.8200260955605 437.8146533919886 1368.9661503197394 434.9938149283644Q1374.1122745439188 432.192036184089 1376.6472172173108 427.8654798919086Q1379.1821598907031 423.53892359972815 1379.1821598907031 419.28860618494303L1379.1821598907031 419.28860618494303Q1379.1821598907031 414.0662430833684 1375.7514104079169 410.0255825814202Q1372.3206609251306 405.984922079472 1365.459161959558 405.984922079472L1365.459161959558 405.984922079472Q1361.8949944413303 405.984922079472 1358.3308269231024 406.93790804691264L1358.3308269231024 406.93790804691264Q1357.7780950619867 410.63549360058227 1356.958527129988 415.78161782476155Q1356.11989947864 420.9277420489409 1355.1669135111997 426.62659813423573Q1354.213927543759 432.3254542195306 1352.8416277506444 437.6812353565469L1352.8416277506444 437.6812353565469Q1353.5277776472017 437.8146533919886 1354.2711067018054 437.8146533919886Q1355.0334954757577 437.8146533919886 1355.9864814431985 437.8146533919886ZM1442.307950373969 491.33434532345353L1442.307950373969 491.33434532345353Q1434.6268834763978 491.33434532345353 1428.7946093556616 487.3508639795518Q1422.962335234925 483.36738263565 1419.7984218230222 476.10562956375253Q1416.653568130468 468.8248167725062 1416.653568130468 459.0853001852631L1416.653568130468 459.0853001852631Q1416.653568130468 447.6875880146734 1420.694228632416 437.9480714274303Q1424.7348891343645 428.20855484018716 1431.9394630482157 420.9277420489409Q1439.1440369620664 413.6659889770434 1448.9026132686586 409.6062687557464Q1458.6421298559017 405.56560825379813 1470.0207823071423 405.56560825379813L1470.0207823071423 405.56560825379813Q1473.318113754487 405.56560825379813 1475.7196383924374 405.7752651666351Q1478.1211630303878 405.984922079472 1480.8657626166168 406.6710719760293L1480.8657626166168 406.6710719760293Q1481.6853305486156 410.50207556514056 1481.8378083034058 413.3800931868112L1481.8378083034058 413.3800931868112Q1484.98266199596 411.32164349713946 1488.8327253044204 410.15900061686193Q1492.6637288935317 408.9963577365844 1495.961060340876 408.9963577365844L1495.961060340876 408.9963577365844Q1505.9864727183513 408.9963577365844 1505.9864727183513 419.8413380460586L1505.9864727183513 419.8413380460586Q1505.9864727183513 423.40550556428644 1504.6713520832832 429.5046157559064Q1503.3752911675642 435.6227856668752 1501.6599164261706 442.96077761616795Q1499.944541684778 450.29876956546065 1498.6484807690586 457.92265730498553Q1497.3333601339905 465.5274853251617 1497.3333601339905 472.12214821985077L1497.3333601339905 472.12214821985077Q1497.3333601339905 481.0420968750949 1501.5836775487755 484.6062643933228L1501.5836775487755 484.6062643933228Q1493.9026106512042 491.33434532345353 1485.2685577861926 491.33434532345353L1485.2685577861926 491.33434532345353Q1477.3015950983886 491.33434532345353 1473.5277706673237 486.39787801211116Q1469.7539462362593 481.4614107007688 1469.7539462362593 471.0166844976196L1469.7539462362593 471.0166844976196L1468.3816464431447 470.3305346010624Q1464.684060889475 480.222528943096 1457.7463230465073 485.76890727360035Q1450.8085852035397 491.33434532345353 1442.307950373969 491.33434532345353ZM1453.1529306834436 466.36611297650944L1453.1529306834436 466.36611297650944Q1458.5087118204597 466.36611297650944 1463.578597167244 462.51604966804933Q1468.6484825140278 458.6659863595892 1472.079231996814 451.95696514880734L1472.079231996814 451.95696514880734Q1472.6319638579298 446.6011840117911 1473.2609345964406 441.8553138939368Q1473.8708456156023 437.12850349543135 1474.9000704604382 431.7727223584151Q1475.929295305274 426.4169412213988 1477.4350131338306 419.1551881495013L1477.4350131338306 419.1551881495013Q1470.4400961328165 419.1551881495013 1464.1885081864057 421.8235488583351Q1457.9559799593444 424.5109692865176 1453.0195126480016 429.1615408076278Q1448.0639856173107 433.8311720480868 1445.2622068730352 439.7968642042651Q1442.441368409411 445.7816160797921 1442.441368409411 452.3572192551324L1442.441368409411 452.3572192551324Q1442.441368409411 459.0853001852631 1445.2622068730352 462.7257065808863Q1448.0639856173107 466.36611297650944 1453.1529306834436 466.36611297650944ZM1543.7247170289997 520.1526409788578L1543.7247170289997 520.1526409788578Q1537.415949924543 520.1526409788578 1532.1935868229684 518.3610273600693Q1526.9712237213935 516.5884734606299 1523.8835491868858 513.1577239778437Q1520.7958746523786 509.72697449505745 1520.7958746523786 504.92392521915673L1520.7958746523786 504.92392521915673Q1520.7958746523786 501.8934298426956 1522.1109952874463 498.3292623244677Q1523.4070562031657 494.7650948062398 1526.4375515796269 490.781613462338L1526.4375515796269 490.781613462338Q1529.582405272181 495.31782666735535 1534.1757976352446 497.7193513053057Q1538.7882497176574 500.12087594325607 1545.3638528929973 500.12087594325607L1545.3638528929973 500.12087594325607Q1550.30032020434 500.12087594325607 1555.3892652704726 497.2428583215854Q1560.459150617257 494.3457809805659 1564.4426319611584 488.24667078894595Q1568.4261133050604 482.14756059732605 1570.0652491690585 472.38898429073413L1570.0652491690585 472.38898429073413L1568.692949375944 471.7028343941769Q1563.6230640291597 479.25048325630655 1556.894983099029 482.6240535810463Q1550.166902168898 485.97856418643727 1543.7247170289997 485.97856418643727L1543.7247170289997 485.97856418643727Q1536.0436501314284 485.97856418643727 1530.4782120815748 481.86166480709386Q1524.9127740317217 477.7447654277504 1521.9775772520047 470.40677347845764Q1519.023320752939 463.06878152916494 1519.023320752939 453.3292649419218L1519.023320752939 453.3292649419218Q1519.023320752939 445.22888421867657 1522.0347564100512 436.7854285471527Q1525.0652517865124 428.34197287562887 1531.3740188909692 421.2708169972195Q1537.682785995426 414.21872083815896 1547.4985414600646 409.8921645459786Q1557.3142969247028 405.56560825379813 1571.037294855848 405.56560825379813L1571.037294855848 405.56560825379813Q1573.7818944420765 405.56560825379813 1576.3168371154688 405.7752651666351Q1578.8517797888608 405.984922079472 1581.8632154459733 406.6710719760293L1581.8632154459733 406.6710719760293Q1582.149111236205 408.0433717691438 1582.4159473070886 409.75874651053687Q1582.7018430973208 411.47412125193 1582.8352611327623 413.3800931868112L1582.8352611327623 413.3800931868112Q1586.132592580107 411.0548074262561 1589.4871031854982 410.0255825814202Q1592.841613790889 408.9963577365844 1595.8721091673501 408.9963577365844L1595.8721091673501 408.9963577365844Q1600.9419945141344 408.9963577365844 1603.1338622392477 411.53130040997644Q1605.3447896837097 414.0662430833684 1605.3447896837097 419.28860618494303L1605.3447896837097 419.28860618494303Q1605.3447896837097 427.7892410145133 1604.1059079260372 438.50080328854585Q1602.8670261683642 449.2123655625783 1600.1224265821352 460.59101801381934Q1597.3778269959062 471.98873018440906 1592.7844346328425 482.5478147036511Q1588.1910422697788 493.12595894224194 1581.3867224622527 501.6265937718122Q1574.6014623740757 510.1272286013825 1565.2621998931577 515.1399347901202Q1555.9419971315883 520.1526409788578 1543.7247170289997 520.1526409788578ZM1558.5341189630267 465.12723121883664L1558.5341189630267 465.12723121883664Q1561.964868445813 465.12723121883664 1565.6815137188314 463.3356176000483Q1569.3790992725012 461.5630637006087 1572.543012684404 457.7130003921486L1572.543012684404 457.7130003921486Q1574.1821485484015 448.7930517369045 1575.687866376958 438.6342213239875Q1577.2126439248632 428.4753909110706 1578.5849437179772 419.1551881495013L1578.5849437179772 419.1551881495013Q1568.0067994793867 419.1551881495013 1560.459150617257 423.40550556428644Q1552.9115017551271 427.6558229790716 1548.9280204112251 434.5935608220393Q1544.9635987866723 441.51223894565817 1544.9635987866723 449.47920163346174L1544.9635987866723 449.47920163346174Q1544.9635987866723 456.6075366699175 1549.0042592886207 460.87691380405147Q1553.044919790569 465.12723121883664 1558.5341189630267 465.12723121883664ZM1642.797138204126 491.33434532345353L1642.797138204126 491.33434532345353Q1634.2965033745559 491.33434532345353 1629.5506332567015 488.38008882438766Q1624.8238228581959 485.4258323253218 1622.9750300813612 480.4321858559329Q1621.1262373045265 475.4194796671953 1621.1262373045265 469.1107125627384L1621.1262373045265 469.1107125627384Q1621.1262373045265 461.8298997714921 1622.6319551330826 453.8057579256421Q1624.137672961639 445.7816160797921 1625.643390790195 438.1577283402672Q1627.1491086187511 430.5338406007423 1627.1491086187511 424.77780535740095L1627.1491086187511 424.77780535740095Q1627.1491086187511 416.27717052783066 1624.2710909970806 412.2936891839289L1624.2710909970806 412.2936891839289Q1629.8937082049802 409.26319380746776 1636.011878115949 407.414401030633Q1642.1109883075687 405.56560825379813 1645.8276335805872 405.56560825379813L1645.8276335805872 405.56560825379813Q1651.4502507884868 405.56560825379813 1653.9851934618791 407.8337148563068Q1656.520136135271 410.1018214588155 1656.520136135271 415.3051248410413L1656.520136135271 415.3051248410413Q1656.520136135271 418.18314246271194 1655.7005682032718 423.1958486514496Q1654.881000271273 428.20855484018716 1653.6421185136 434.117067838319Q1652.4032367559275 440.006521117102 1651.1071758402081 445.97221327328026Q1649.79205520514 451.95696514880734 1648.9724872731413 456.760014424708Q1648.1529193411425 461.5630637006087 1648.1529193411425 464.3076632868377L1648.1529193411425 464.3076632868377Q1648.1529193411425 469.37754863362176 1650.821280049976 471.98873018440906Q1653.5087004781585 474.5999117351964 1657.3397040672698 474.5999117351964L1657.3397040672698 474.5999117351964Q1661.7424992368456 474.5999117351964 1666.5455485127459 471.3025802878518Q1671.3485977886467 468.0052488405073 1674.4934514812007 461.69648173605043L1674.4934514812007 461.69648173605043Q1675.0461833423165 458.6659863595892 1675.9419901517108 454.14883287392075Q1676.8377969611047 449.6126196689034 1678.0004398413826 444.4664954447241Q1679.16308272166 439.32037122054476 1680.1923075664959 434.5935608220393Q1681.2215324113317 429.847690704185 1682.0411003433305 426.5694189761893L1682.0411003433305 426.5694189761893L1673.807301584644 415.59102063127347Q1679.7158145827757 411.32164349713946 1686.4438955129062 408.44362587546885Q1693.1719764430368 405.56560825379813 1700.1668934440513 405.56560825379813L1700.1668934440513 405.56560825379813Q1706.3422425130661 405.56560825379813 1709.0106032219 407.8337148563068Q1711.6980236500826 410.1018214588155 1711.6980236500826 415.3051248410413L1711.6980236500826 415.3051248410413Q1711.6980236500826 418.18314246271194 1710.6687988052463 423.2720875288448Q1709.6395739604109 428.34197287562887 1708.1910352899008 434.5935608220393Q1706.7424966193912 440.8260890491009 1705.2367787908352 447.5541699792317Q1703.7310609622787 454.2822509093624 1702.7018361174432 460.66725689121455Q1701.6726112726074 467.0522628730667 1701.6726112726074 472.12214821985077L1701.6726112726074 472.12214821985077Q1701.6726112726074 476.2390475991942 1702.7018361174432 479.4601401691435Q1703.7310609622787 482.68123273909276 1705.9229286873924 484.6062643933228L1705.9229286873924 484.6062643933228Q1698.241861789821 491.33434532345353 1689.5887492054603 491.33434532345353L1689.5887492054603 491.33434532345353Q1680.8212783050067 491.33434532345353 1677.3905288222204 487.3508639795518Q1673.9597793394341 483.36738263565 1673.9597793394341 477.8781834631921L1673.9597793394341 477.8781834631921L1672.5874795463196 477.19203356663485Q1668.0512663413024 483.92011449676556 1659.9508856180573 487.63675976978396Q1651.8505048948118 491.33434532345353 1642.797138204126 491.33434532345353ZM1775.6433820653479 491.33434532345353L1775.6433820653479 491.33434532345353Q1767.8098374129859 491.33434532345353 1761.1579953602504 489.27589563378183Q1754.506153307515 487.2174459441101 1747.2253405162687 484.4728463578811L1747.2253405162687 484.4728463578811Q1743.1084411369252 487.63675976978396 1739.5442736186974 489.00905956289847Q1735.9801061004696 490.381359356013 1731.9966247565676 490.381359356013L1731.9966247565676 490.381359356013Q1725.6878576521108 490.381359356013 1722.3905262047665 486.3216391347159Q1719.0931947574218 482.2809786327677 1719.0931947574218 477.19203356663485L1719.0931947574218 477.19203356663485Q1719.0931947574218 471.56941635873517 1723.0766761013233 466.36611297650944Q1727.0601574452253 461.1437498749348 1735.4273742393539 460.1907639074943L1735.4273742393539 460.1907639074943L1757.9369027903012 436.3089355634324Q1746.1389365133864 435.88962173775855 1739.6205124960925 433.62151513524987Q1733.1020884787986 431.3724682520901 1730.5671458054067 427.312748030793Q1728.0131434126656 423.2720875288448 1728.0131434126656 417.363574530713L1728.0131434126656 417.363574530713Q1728.0131434126656 414.7523929799257 1728.4324572383398 411.9506142356503Q1728.8517710640135 409.12977577202605 1729.5379209605708 404.87945835724094L1729.5379209605708 404.87945835724094Q1735.713270029586 407.35722187258654 1743.3180980497623 409.6825076331416Q1750.9419857892872 412.0077933936967 1758.0703208257428 413.45633206420644Q1765.2177155815475 414.9048707347162 1769.734869067216 415.17170680559957L1769.734869067216 415.17170680559957Q1771.9267367923294 411.0548074262561 1776.1961139264636 408.31020784002715Q1780.4464313412482 405.56560825379813 1785.516316688033 405.56560825379813L1785.516316688033 405.56560825379813Q1792.7971294792787 405.56560825379813 1796.3612969975065 409.2060146494213Q1799.9254645157348 412.84642104504445 1799.9254645157348 418.4690382529441L1799.9254645157348 418.4690382529441Q1799.9254645157348 423.95823742540205 1797.257103806901 427.38898690818826Q1794.5696833787183 430.81973639097447 1789.9191118576082 432.8781860806462L1789.9191118576082 432.8781860806462L1761.501070308529 465.39406728972Q1765.2177155815475 466.4995310119511 1768.7818830997753 467.31909894395005Q1772.3460506180031 468.13866687594896 1775.6433820653479 468.27208491139066L1775.6433820653479 468.27208491139066L1794.3028473078352 461.0103318394932Q1795.5417290655078 464.1551855320472 1796.3612969975065 467.528755856787Q1797.1808649295058 470.88326646217797 1797.1808649295058 474.5999117351964L1797.1808649295058 474.5999117351964Q1797.1808649295058 479.53637904653874 1794.2266084304397 483.3102034776036Q1791.2914116507227 487.0840279086684 1786.4121234974268 489.19965675638656Q1781.532835344131 491.33434532345353 1775.6433820653479 491.33434532345353ZM1763.006788137085 400.8959770133392L1763.006788137085 400.8959770133392Q1756.2977669263032 400.8959770133392 1751.4184787730073 399.1234231138996Q1746.5391906197115 397.33180949511126 1746.5391906197115 393.0814920803261L1746.5391906197115 393.0814920803261L1746.5391906197115 381.68377990973636Q1746.5391906197115 378.11961239150844 1745.3193685813876 376.06116270183674Q1744.0804868237146 374.002713012165 1742.288873204926 372.7638312544922L1742.288873204926 372.7638312544922Q1744.9000547557134 371.6774272516099 1748.3308042384997 370.9150384776574Q1751.761553721286 370.15264970370487 1755.1923032040722 370.15264970370487L1755.1923032040722 370.15264970370487Q1760.1287705154145 370.15264970370487 1763.2164450499222 372.3635771481671Q1766.3041195844298 374.5554448732805 1766.3041195844298 380.44489815206356L1766.3041195844298 380.44489815206356Q1766.3041195844298 382.78924363196745 1765.8276266007097 386.01033620191674Q1765.351133616989 389.231428771866 1764.7984017558738 392.39534218376883L1764.7984017558738 392.39534218376883L1768.9153011352169 392.39534218376883Q1771.2405868957721 390.05099670386494 1772.8987824791188 385.87691816647504Q1774.5379183431169 381.68377990973636 1774.5379183431169 377.4334624949512L1774.5379183431169 377.4334624949512Q1774.5379183431169 376.3279987727201 1774.48073918507 375.10817673439607Q1774.4045003076749 373.8692949767233 1774.2710822722333 372.63041321905047L1774.2710822722333 372.63041321905047Q1777.0156818584624 371.5249494968194 1780.3130133058066 370.8387996002621Q1783.5912850338027 370.15264970370487 1787.4413483422627 370.15264970370487L1787.4413483422627 370.15264970370487Q1793.3498613403945 370.15264970370487 1795.6751471009493 371.6774272516099Q1798.0004328615046 373.18314508016607 1798.0004328615046 375.50843084072113L1798.0004328615046 375.50843084072113Q1798.0004328615046 377.8527763206251 1796.3612969975065 380.7879731003422Q1794.722161133509 383.74222959940806 1792.3206364955586 386.7727249758692Q1789.9191118576082 389.7841606329816 1787.4413483422627 392.52876021921054Q1784.9635848269172 395.2733598054395 1783.1910309274776 397.19839145966955L1783.1910309274776 397.19839145966955Q1779.7602814446914 398.8375273236674 1774.1948433948378 399.8667521685033Q1768.6484650643338 400.8959770133392 1763.006788137085 400.8959770133392Z " fill="#253031ff" transform="matrix(0.48777862986436143,0,0,0.48777862986436143,-2.9652451328696516,82.86403476717607)"/></g></svg>